<?xml version="1.0" standalone="no"?>
<!DOCTYPE svg PUBLIC "-//W3C//DTD SVG 20010904//EN"
 "http://www.w3.org/TR/2001/REC-SVG-20010904/DTD/svg10.dtd">
<svg version="1.0" xmlns="http://www.w3.org/2000/svg"
 width="700.000000pt" height="700.000000pt" viewBox="0 0 700.000000 700.000000"
 preserveAspectRatio="xMidYMid meet">
<metadata>
Created by potrace 1.11, written by Peter Selinger 2001-2013
</metadata>
<g transform="translate(0.000000,700.000000) scale(0.100000,-0.100000)"
fill="#000000" stroke="none">
<path d="M2530 6980 c-170 -46 -303 -148 -385 -295 -59 -107 -79 -188 -78
-312 1 -97 17 -162 64 -258 44 -93 110 -171 194 -230 60 -41 173 -95 201 -95
10 0 14 -6 10 -17 -88 -305 -79 -642 22 -848 50 -101 134 -201 202 -242 36
-21 37 -29 8 -57 -13 -12 -39 -40 -59 -62 l-35 -39 -342 1 c-188 0 -343 2
-346 5 -2 2 -138 272 -301 599 -164 327 -320 628 -348 668 -152 220 -422 365
-683 365 -70 1 -87 -3 -127 -26 -66 -39 -102 -104 -100 -179 4 -125 77 -191
224 -203 126 -10 211 -48 298 -133 56 -55 71 -83 399 -737 237 -474 350 -690
373 -713 55 -54 73 -56 437 -56 l334 -1 -8 -65 c-9 -82 -9 -196 0 -280 l8 -65
-344 -1 c-309 0 -346 -2 -377 -18 -18 -10 -171 -155 -339 -322 -168 -167 -329
-320 -359 -340 -121 -80 -264 -128 -410 -138 -89 -5 -134 -21 -175 -58 -115
-109 -64 -305 92 -345 38 -10 103 -10 190 1 177 21 370 92 511 186 100 67 152
115 417 379 l247 246 367 0 367 0 38 -45 c51 -60 109 -115 161 -152 23 -17 42
-35 42 -39 0 -4 -13 -21 -28 -36 -68 -66 -138 -163 -204 -278 -40 -72 -108
-227 -108 -249 0 -9 -6 -17 -12 -17 -7 -1 -179 -3 -383 -4 -404 -2 -411 -3
-469 -61 -16 -16 -34 -42 -41 -59 -10 -24 -81 -355 -101 -475 -3 -14 -7 -32
-9 -40 -2 -8 -7 -31 -10 -50 -3 -19 -19 -98 -35 -175 -15 -77 -31 -156 -34
-175 -3 -19 -15 -80 -27 -135 -11 -55 -23 -111 -25 -125 -3 -14 -19 -95 -36
-180 -16 -85 -32 -165 -34 -176 -39 -211 -58 -265 -117 -325 -49 -51 -112 -78
-199 -88 -87 -10 -125 -28 -166 -77 -93 -112 -38 -287 100 -325 111 -29 323
25 460 118 88 60 188 179 231 273 42 93 47 109 63 195 3 17 9 48 14 70 5 22
11 55 15 73 3 18 12 64 20 102 8 38 17 84 20 102 4 18 24 123 46 233 22 110
42 211 45 225 3 14 16 84 31 155 14 72 27 139 29 150 2 11 6 31 9 45 6 26 26
130 46 238 7 39 17 65 28 70 19 10 421 10 437 0 6 -4 8 -27 4 -62 -7 -67 -5
-237 4 -331 63 -629 381 -1103 826 -1231 91 -26 301 -26 385 -1 422 129 719
543 812 1130 10 66 16 173 17 302 l1 200 222 0 c122 0 224 -3 226 -5 3 -3 8
-27 11 -54 4 -27 9 -52 11 -56 2 -3 6 -25 10 -50 4 -25 8 -47 10 -50 2 -3 6
-21 9 -40 3 -19 8 -46 11 -60 3 -14 7 -36 10 -50 2 -14 9 -50 15 -80 6 -30 13
-66 16 -80 2 -14 9 -45 14 -70 5 -25 12 -61 15 -80 3 -19 10 -51 15 -70 5 -19
12 -51 15 -70 3 -19 10 -55 15 -80 5 -25 12 -56 14 -70 5 -27 23 -118 31 -160
3 -14 8 -38 11 -54 24 -135 75 -370 89 -408 24 -73 61 -141 107 -200 54 -68
62 -77 128 -127 112 -88 242 -137 389 -148 65 -5 84 -2 123 16 153 69 166 273
23 361 -23 14 -63 25 -112 31 -88 10 -146 35 -197 87 -60 59 -81 112 -111 284
-3 18 -39 199 -80 403 -41 204 -76 382 -79 395 -2 14 -14 71 -25 128 -11 56
-23 117 -26 135 -3 17 -8 39 -10 47 -2 8 -7 29 -9 45 -20 117 -79 394 -90 419
-17 40 -60 82 -104 103 -31 15 -82 17 -413 17 l-378 1 -22 60 c-58 160 -152
322 -264 450 -37 42 -65 77 -63 79 43 26 141 116 209 192 l35 39 366 0 366 0
240 -241 c132 -133 267 -264 299 -292 76 -66 214 -152 300 -187 37 -15 77 -31
88 -36 98 -41 354 -76 433 -58 153 34 208 239 94 347 -41 38 -88 54 -176 59
-145 9 -288 57 -409 137 -29 19 -193 174 -364 344 -237 237 -320 313 -349 323
-29 10 -123 13 -372 14 l-333 0 8 60 c9 77 10 213 0 290 l-7 60 327 0 c360 0
388 4 445 60 19 19 153 276 368 705 251 502 348 687 379 722 80 89 189 141
318 152 39 3 80 9 90 13 171 63 185 296 23 379 -70 36 -269 15 -412 -43 -159
-64 -277 -157 -384 -303 -23 -30 -177 -327 -344 -660 -166 -333 -306 -607
-310 -610 -5 -3 -162 -5 -349 -4 -335 0 -342 1 -356 21 -8 12 -33 41 -55 64
-46 51 -47 55 -20 64 33 10 143 125 182 190 48 80 85 190 102 300 24 160 6
415 -39 569 -8 27 -14 50 -12 51 1 0 20 7 42 14 107 35 205 100 279 183 53 60
118 186 136 268 17 70 17 200 1 270 -31 132 -131 283 -241 363 -103 74 -211
110 -337 111 -86 1 -94 -1 -135 -29 -158 -111 -96 -357 94 -372 29 -3 67 -9
83 -15 120 -44 171 -170 114 -284 -33 -68 -88 -104 -168 -111 l-62 -6 -84 90
c-214 229 -453 335 -725 320 -266 -15 -522 -154 -698 -381 -21 -27 -25 -28
-87 -24 -52 3 -73 10 -107 34 -120 84 -121 254 -3 336 29 20 61 31 115 38 95
13 145 45 181 116 46 92 19 197 -68 257 -36 26 -52 30 -120 32 -51 2 -100 -3
-143 -15z"/>
</g>
</svg>
