<svg xmlns="http://www.w3.org/2000/svg" viewBox="0 0 400 256"><defs><style>.a{fill:#958573;}.b{fill:none;stroke:#c7b299;stroke-miterlimit:10;stroke-width:9px;}</style></defs><title>anthill</title><polyline class="a" points="10 261 10.67 259.18 11.35 257.38 12.02 255.57 12.7 253.78 13.37 251.99 14.04 250.2 14.72 248.42 15.39 246.65 16.06 244.89 16.74 243.13 17.41 241.38 18.09 239.63 18.76 237.9 19.43 236.16 20.11 234.44 20.78 232.72 21.45 231.01 22.13 229.3 22.8 227.6 23.48 225.91 24.15 224.22 24.82 222.54 25.5 220.87 26.17 219.2 26.84 217.54 27.52 215.88 28.19 214.23 28.86 212.59 29.54 210.96 30.21 209.33 30.89 207.71 31.56 206.09 32.23 204.48 32.91 202.88 33.58 201.28 34.26 199.69 34.93 198.11 35.6 196.53 36.28 194.96 36.95 193.4 37.62 191.84 38.3 190.28 38.97 188.74 39.65 187.2 40.32 185.67 40.99 184.14 41.67 182.63 42.34 181.11 43.01 179.61 43.69 178.11 44.36 176.61 45.03 175.13 45.71 173.65 46.38 172.17 47.06 170.7 47.73 169.24 48.4 167.79 49.08 166.34 49.75 164.9 50.43 163.46 51.1 162.03 51.77 160.61 52.45 159.19 53.12 157.79 53.79 156.38 54.47 154.99 55.14 153.6 55.82 152.21 56.49 150.84 57.16 149.46 57.84 148.1 58.51 146.74 59.18 145.39 59.86 144.04 60.53 142.71 61.21 141.38 61.88 140.05 62.55 138.73 63.23 137.42 63.9 136.11 64.57 134.81 65.25 133.52 65.92 132.23 66.6 130.95 67.27 129.68 67.94 128.41 68.62 127.15 69.29 125.89 69.97 124.64 70.64 123.4 71.31 122.17 71.99 120.94 72.66 119.72 73.33 118.5 74.01 117.29 74.68 116.09 75.36 114.89 76.03 113.7 76.7 112.52 77.38 111.34 78.05 110.17 78.72 109 79.4 107.85 80.07 106.69 80.75 105.55 81.42 104.41 82.09 103.28 82.77 102.15 83.44 101.03 84.11 99.92 84.79 98.81 85.46 97.72 86.14 96.62 86.81 95.53 87.48 94.45 88.16 93.38 88.83 92.31 89.5 91.25 90.18 90.2 90.85 89.15 91.53 88.11 92.2 87.07 92.87 86.04 93.55 85.02 94.22 84 94.89 82.99 95.57 81.99 96.24 81 96.92 80 97.59 79.02 98.26 78.04 98.94 77.07 99.61 76.11 100.28 75.15 100.96 74.2 101.63 73.25 102.31 72.31 102.98 71.38 103.65 70.46 104.33 69.54 105 68.63 105.67 67.72 106.35 66.82 107.02 65.92 107.69 65.04 108.37 64.16 109.04 63.28 109.72 62.42 110.39 61.55 111.06 60.7 111.74 59.85 112.41 59.01 113.08 58.17 113.76 57.35 114.43 56.52 115.11 55.71 115.78 54.9 116.45 54.09 117.13 53.3 117.8 52.51 118.47 51.72 119.15 50.95 119.82 50.17 120.5 49.41 121.17 48.65 121.84 47.9 122.52 47.16 123.19 46.42 123.86 45.69 124.54 44.96 125.21 44.24 125.89 43.53 126.56 42.82 127.23 42.12 127.91 41.43 128.58 40.74 129.25 40.06 129.93 39.39 130.6 38.72 131.28 38.06 131.95 37.4 132.62 36.75 133.3 36.11 133.97 35.48 134.65 34.85 135.32 34.23 135.99 33.61 136.67 33 137.34 32.4 138.01 31.8 138.69 31.21 139.36 30.63 140.03 30.05 140.71 29.48 141.38 28.91 142.06 28.36 142.73 27.8 143.4 27.26 144.08 26.72 144.75 26.19 145.43 25.66 146.1 25.14 146.77 24.63 147.45 24.12 148.12 23.62 148.79 23.13 149.47 22.64 150.14 22.16 150.82 21.69 151.49 21.22 152.16 20.76 152.84 20.3 153.51 19.86 154.18 19.41 154.86 18.98 155.53 18.55 156.21 18.13 156.88 17.71 157.55 17.3 158.23 16.9 158.9 16.5 159.57 16.11 160.25 15.73 160.92 15.35 161.6 14.98 162.27 14.62 162.94 14.26 163.62 13.9 164.29 13.56 164.97 13.22 165.64 12.89 166.31 12.56 166.99 12.24 167.66 11.93 168.33 11.63 169.01 11.32 169.68 11.03 170.35 10.74 171.03 10.46 171.7 10.19 172.38 9.92 173.05 9.66 173.72 9.41 174.4 9.16 175.07 8.92 175.75 8.68 176.42 8.45 177.09 8.23 177.77 8.01 178.44 7.8 179.11 7.6 179.79 7.4 180.46 7.21 181.13 7.03 181.81 6.85 182.48 6.68 183.16 6.52 183.83 6.36 184.5 6.21 185.18 6.06 185.85 5.92 186.53 5.79 187.2 5.66 187.87 5.54 188.55 5.43 189.22 5.33 189.89 5.23 190.57 5.13 191.24 5.04 191.91 4.96 192.59 4.89 193.26 4.82 193.94 4.76 194.61 4.71 195.28 4.66 195.96 4.62 196.63 4.58 197.31 4.55 197.98 4.53 198.65 4.51 199.33 4.5 200 4.5 200.67 4.5 201.35 4.51 202.02 4.53 202.69 4.55 203.37 4.58 204.04 4.62 204.72 4.66 205.39 4.71 206.06 4.76 206.74 4.82 207.41 4.89 208.09 4.96 208.76 5.04 209.43 5.13 210.11 5.23 210.78 5.33 211.45 5.43 212.13 5.54 212.8 5.66 213.47 5.79 214.15 5.92 214.82 6.06 215.5 6.21 216.17 6.36 216.84 6.52 217.52 6.68 218.19 6.85 218.87 7.03 219.54 7.21 220.21 7.4 220.89 7.6 221.56 7.8 222.23 8.01 222.91 8.23 223.58 8.45 224.25 8.68 224.93 8.92 225.6 9.16 226.28 9.41 226.95 9.66 227.62 9.92 228.3 10.19 228.97 10.46 229.65 10.74 230.32 11.03 230.99 11.32 231.67 11.63 232.34 11.93 233.01 12.24 233.69 12.56 234.36 12.89 235.03 13.22 235.71 13.56 236.38 13.9 237.06 14.26 237.73 14.62 238.4 14.98 239.08 15.35 239.75 15.73 240.43 16.11 241.1 16.5 241.77 16.9 242.45 17.3 243.12 17.71 243.79 18.13 244.47 18.55 245.14 18.98 245.82 19.41 246.49 19.86 247.16 20.3 247.84 20.76 248.51 21.22 249.18 21.69 249.86 22.16 250.53 22.64 251.21 23.13 251.88 23.62 252.55 24.12 253.23 24.63 253.9 25.14 254.57 25.66 255.25 26.19 255.92 26.72 256.6 27.26 257.27 27.8 257.94 28.36 258.62 28.91 259.29 29.48 259.96 30.05 260.64 30.63 261.31 31.21 261.99 31.8 262.66 32.4 263.33 33 264.01 33.61 264.68 34.23 265.36 34.85 266.03 35.48 266.7 36.11 267.38 36.75 268.05 37.4 268.72 38.06 269.4 38.72 270.07 39.39 270.75 40.06 271.42 40.74 272.09 41.43 272.77 42.12 273.44 42.82 274.11 43.53 274.79 44.24 275.46 44.96 276.13 45.69 276.81 46.42 277.48 47.16 278.16 47.9 278.83 48.65 279.5 49.41 280.18 50.17 280.85 50.95 281.52 51.72 282.2 52.51 282.87 53.3 283.55 54.09 284.22 54.9 284.89 55.71 285.57 56.52 286.24 57.35 286.92 58.17 287.59 59.01 288.26 59.85 288.94 60.7 289.61 61.55 290.28 62.42 290.96 63.28 291.63 64.16 292.31 65.04 292.98 65.92 293.65 66.82 294.33 67.72 295 68.63 295.67 69.54 296.35 70.46 297.02 71.38 297.69 72.31 298.37 73.25 299.04 74.2 299.72 75.15 300.39 76.11 301.06 77.07 301.74 78.04 302.41 79.02 303.08 80 303.76 81 304.43 81.99 305.11 82.99 305.78 84 306.45 85.02 307.13 86.04 307.8 87.07 308.48 88.11 309.15 89.15 309.82 90.2 310.5 91.25 311.17 92.31 311.84 93.38 312.52 94.45 313.19 95.53 313.87 96.62 314.54 97.72 315.21 98.81 315.89 99.92 316.56 101.03 317.23 102.15 317.91 103.28 318.58 104.41 319.25 105.55 319.93 106.69 320.6 107.85 321.28 109 321.95 110.17 322.62 111.34 323.3 112.52 323.97 113.7 324.64 114.89 325.32 116.09 325.99 117.29 326.67 118.5 327.34 119.72 328.01 120.94 328.69 122.17 329.36 123.4 330.04 124.64 330.71 125.89 331.38 127.15 332.06 128.41 332.73 129.68 333.4 130.95 334.08 132.23 334.75 133.52 335.43 134.81 336.1 136.11 336.77 137.42 337.45 138.73 338.12 140.05 338.79 141.38 339.47 142.71 340.14 144.04 340.82 145.39 341.49 146.74 342.16 148.1 342.84 149.46 343.51 150.84 344.18 152.21 344.86 153.6 345.53 154.99 346.21 156.38 346.88 157.79 347.55 159.19 348.23 160.61 348.9 162.03 349.57 163.46 350.25 164.9 350.92 166.34 351.6 167.79 352.27 169.24 352.94 170.7 353.62 172.17 354.29 173.65 354.96 175.13 355.64 176.61 356.31 178.11 356.99 179.61 357.66 181.11 358.33 182.63 359.01 184.14 359.68 185.67 360.36 187.2 361.03 188.74 361.7 190.28 362.38 191.84 363.05 193.4 363.72 194.96 364.4 196.53 365.07 198.11 365.75 199.69 366.42 201.28 367.09 202.88 367.77 204.48 368.44 206.09 369.11 207.71 369.79 209.33 370.46 210.96 371.13 212.59 371.81 214.23 372.48 215.88 373.16 217.54 373.83 219.2 374.5 220.87 375.18 222.54 375.85 224.22 376.52 225.91 377.2 227.6 377.87 229.3 378.55 231.01 379.22 232.72 379.89 234.44 380.57 236.16 381.24 237.9 381.92 239.63 382.59 241.38 383.26 243.13 383.94 244.89 384.61 246.65 385.28 248.42 385.96 250.2 386.63 251.99 387.31 253.78 387.98 255.57 388.65 257.38 389.33 259.18 390 261"/><polyline class="b" points="10 261 10.67 259.18 11.35 257.38 12.02 255.57 12.7 253.78 13.37 251.99 14.04 250.2 14.72 248.42 15.39 246.65 16.06 244.89 16.74 243.13 17.41 241.38 18.09 239.63 18.76 237.9 19.43 236.16 20.11 234.44 20.78 232.72 21.45 231.01 22.13 229.3 22.8 227.6 23.48 225.91 24.15 224.22 24.82 222.54 25.5 220.87 26.17 219.2 26.84 217.54 27.52 215.88 28.19 214.23 28.86 212.59 29.54 210.96 30.21 209.33 30.89 207.71 31.56 206.09 32.23 204.48 32.91 202.88 33.58 201.28 34.26 199.69 34.93 198.11 35.6 196.53 36.28 194.96 36.95 193.4 37.62 191.84 38.3 190.28 38.97 188.74 39.65 187.2 40.32 185.67 40.99 184.14 41.67 182.63 42.34 181.11 43.01 179.61 43.69 178.11 44.36 176.61 45.03 175.13 45.71 173.65 46.38 172.17 47.06 170.7 47.73 169.24 48.4 167.79 49.08 166.34 49.75 164.9 50.43 163.46 51.1 162.03 51.77 160.61 52.45 159.19 53.12 157.79 53.79 156.38 54.47 154.99 55.14 153.6 55.82 152.21 56.49 150.84 57.16 149.46 57.84 148.1 58.51 146.74 59.18 145.39 59.86 144.04 60.53 142.71 61.21 141.38 61.88 140.05 62.55 138.73 63.23 137.42 63.9 136.11 64.57 134.81 65.25 133.52 65.92 132.23 66.6 130.95 67.27 129.68 67.94 128.41 68.62 127.15 69.29 125.89 69.97 124.64 70.64 123.4 71.31 122.17 71.99 120.94 72.66 119.72 73.33 118.5 74.01 117.29 74.68 116.09 75.36 114.89 76.03 113.7 76.7 112.52 77.38 111.34 78.05 110.17 78.72 109 79.4 107.85 80.07 106.69 80.75 105.55 81.42 104.41 82.09 103.28 82.77 102.15 83.44 101.03 84.11 99.92 84.79 98.81 85.46 97.72 86.14 96.62 86.81 95.53 87.48 94.45 88.16 93.38 88.83 92.31 89.5 91.25 90.18 90.2 90.85 89.15 91.53 88.11 92.2 87.07 92.87 86.04 93.55 85.02 94.22 84 94.89 82.99 95.57 81.99 96.24 81 96.92 80 97.59 79.02 98.26 78.04 98.94 77.07 99.61 76.11 100.28 75.15 100.96 74.2 101.63 73.25 102.31 72.31 102.98 71.38 103.65 70.46 104.33 69.54 105 68.63 105.67 67.72 106.35 66.82 107.02 65.92 107.69 65.04 108.37 64.16 109.04 63.28 109.72 62.42 110.39 61.55 111.06 60.7 111.74 59.85 112.41 59.01 113.08 58.17 113.76 57.35 114.43 56.52 115.11 55.71 115.78 54.9 116.45 54.09 117.13 53.3 117.8 52.51 118.47 51.72 119.15 50.95 119.82 50.17 120.5 49.41 121.17 48.65 121.84 47.9 122.52 47.16 123.19 46.42 123.86 45.69 124.54 44.96 125.21 44.24 125.89 43.53 126.56 42.82 127.23 42.12 127.91 41.43 128.58 40.74 129.25 40.06 129.93 39.39 130.6 38.72 131.28 38.06 131.95 37.4 132.62 36.75 133.3 36.11 133.97 35.48 134.65 34.85 135.32 34.23 135.99 33.61 136.67 33 137.34 32.4 138.01 31.8 138.69 31.21 139.36 30.63 140.03 30.05 140.71 29.48 141.38 28.91 142.06 28.36 142.73 27.8 143.4 27.26 144.08 26.72 144.75 26.19 145.43 25.66 146.1 25.14 146.77 24.63 147.45 24.12 148.12 23.62 148.79 23.13 149.47 22.64 150.14 22.16 150.82 21.69 151.49 21.22 152.16 20.76 152.84 20.3 153.51 19.86 154.18 19.41 154.86 18.98 155.53 18.55 156.21 18.13 156.88 17.71 157.55 17.3 158.23 16.9 158.9 16.5 159.57 16.11 160.25 15.73 160.92 15.35 161.6 14.98 162.27 14.62 162.94 14.26 163.62 13.9 164.29 13.56 164.97 13.22 165.64 12.89 166.31 12.56 166.99 12.24 167.66 11.93 168.33 11.63 169.01 11.32 169.68 11.03 170.35 10.74 171.03 10.46 171.7 10.19 172.38 9.92 173.05 9.66 173.72 9.41 174.4 9.16 175.07 8.92 175.75 8.68 176.42 8.45 177.09 8.23 177.77 8.01 178.44 7.8 179.11 7.6 179.79 7.4 180.46 7.21 181.13 7.03 181.81 6.85 182.48 6.68 183.16 6.52 183.83 6.36 184.5 6.21 185.18 6.06 185.85 5.92 186.53 5.79 187.2 5.66 187.87 5.54 188.55 5.43 189.22 5.33 189.89 5.23 190.57 5.13 191.24 5.04 191.91 4.96 192.59 4.89 193.26 4.82 193.94 4.76 194.61 4.71 195.28 4.66 195.96 4.62 196.63 4.58 197.31 4.55 197.98 4.53 198.65 4.51 199.33 4.5 200 4.5 200.67 4.5 201.35 4.51 202.02 4.53 202.69 4.55 203.37 4.58 204.04 4.62 204.72 4.66 205.39 4.71 206.06 4.76 206.74 4.82 207.41 4.89 208.09 4.96 208.76 5.04 209.43 5.13 210.11 5.23 210.78 5.33 211.45 5.43 212.13 5.54 212.8 5.66 213.47 5.79 214.15 5.92 214.82 6.06 215.5 6.21 216.17 6.36 216.84 6.52 217.52 6.68 218.19 6.85 218.87 7.03 219.54 7.21 220.21 7.4 220.89 7.6 221.56 7.8 222.23 8.01 222.91 8.23 223.58 8.45 224.25 8.68 224.93 8.92 225.6 9.16 226.28 9.41 226.95 9.66 227.62 9.92 228.3 10.19 228.97 10.46 229.65 10.74 230.32 11.03 230.99 11.32 231.67 11.63 232.34 11.93 233.01 12.24 233.69 12.56 234.36 12.89 235.03 13.22 235.71 13.56 236.38 13.9 237.06 14.26 237.73 14.62 238.4 14.98 239.08 15.35 239.75 15.73 240.43 16.11 241.1 16.5 241.77 16.9 242.45 17.3 243.12 17.71 243.79 18.13 244.47 18.55 245.14 18.98 245.82 19.41 246.49 19.86 247.16 20.3 247.84 20.76 248.51 21.22 249.18 21.69 249.86 22.16 250.53 22.64 251.21 23.13 251.88 23.62 252.55 24.12 253.23 24.63 253.9 25.14 254.57 25.66 255.25 26.19 255.92 26.72 256.6 27.26 257.27 27.8 257.94 28.36 258.62 28.91 259.29 29.48 259.96 30.05 260.64 30.63 261.31 31.21 261.99 31.8 262.66 32.4 263.33 33 264.01 33.61 264.68 34.23 265.36 34.85 266.03 35.48 266.7 36.11 267.38 36.75 268.05 37.4 268.72 38.06 269.4 38.72 270.07 39.39 270.75 40.06 271.42 40.74 272.09 41.43 272.77 42.12 273.44 42.82 274.11 43.53 274.79 44.24 275.46 44.96 276.13 45.69 276.81 46.42 277.48 47.16 278.16 47.9 278.83 48.65 279.5 49.41 280.18 50.17 280.85 50.95 281.52 51.72 282.2 52.51 282.87 53.3 283.55 54.09 284.22 54.9 284.89 55.71 285.57 56.52 286.24 57.35 286.92 58.17 287.59 59.01 288.26 59.85 288.94 60.7 289.61 61.55 290.28 62.42 290.96 63.28 291.63 64.16 292.31 65.04 292.98 65.92 293.65 66.82 294.33 67.72 295 68.63 295.67 69.54 296.35 70.46 297.02 71.38 297.69 72.31 298.37 73.25 299.04 74.2 299.72 75.15 300.39 76.11 301.06 77.07 301.74 78.04 302.41 79.02 303.08 80 303.76 81 304.43 81.99 305.11 82.99 305.78 84 306.45 85.02 307.13 86.04 307.8 87.07 308.48 88.11 309.15 89.15 309.82 90.2 310.5 91.25 311.17 92.31 311.84 93.38 312.52 94.45 313.19 95.53 313.87 96.62 314.54 97.72 315.21 98.81 315.89 99.92 316.56 101.03 317.23 102.15 317.91 103.28 318.58 104.41 319.25 105.55 319.93 106.69 320.6 107.85 321.28 109 321.95 110.17 322.62 111.34 323.3 112.52 323.97 113.7 324.64 114.89 325.32 116.09 325.99 117.29 326.67 118.5 327.34 119.72 328.01 120.94 328.69 122.17 329.36 123.4 330.04 124.64 330.71 125.89 331.38 127.15 332.06 128.41 332.73 129.68 333.4 130.95 334.08 132.23 334.75 133.52 335.43 134.81 336.1 136.11 336.77 137.42 337.45 138.73 338.12 140.05 338.79 141.38 339.47 142.71 340.14 144.04 340.82 145.39 341.49 146.74 342.16 148.1 342.84 149.46 343.51 150.84 344.18 152.21 344.86 153.6 345.53 154.99 346.21 156.38 346.88 157.79 347.55 159.19 348.23 160.61 348.9 162.03 349.57 163.46 350.25 164.9 350.92 166.34 351.6 167.79 352.27 169.24 352.94 170.7 353.62 172.17 354.29 173.65 354.96 175.13 355.64 176.61 356.31 178.11 356.99 179.61 357.66 181.11 358.33 182.63 359.01 184.14 359.68 185.67 360.36 187.2 361.03 188.74 361.7 190.28 362.38 191.84 363.05 193.4 363.72 194.96 364.4 196.53 365.07 198.11 365.75 199.69 366.42 201.28 367.09 202.88 367.77 204.48 368.44 206.09 369.11 207.71 369.79 209.33 370.46 210.96 371.13 212.59 371.81 214.23 372.48 215.88 373.16 217.54 373.83 219.2 374.5 220.87 375.18 222.54 375.85 224.22 376.52 225.91 377.2 227.6 377.87 229.3 378.55 231.01 379.22 232.72 379.89 234.44 380.57 236.16 381.24 237.9 381.92 239.63 382.59 241.38 383.26 243.13 383.94 244.89 384.61 246.65 385.28 248.42 385.96 250.2 386.63 251.99 387.31 253.78 387.98 255.57 388.65 257.38 389.33 259.18 390 261"/></svg>