<svg xmlns="http://www.w3.org/2000/svg" viewBox="-50 0 400 246.5"><defs><style>.a{fill:#8e6a55;}.b{fill:#495e4d;}.c{fill:#6b4733;}.d{fill:#263228;}</style></defs><title>strom</title><path class="a" d="M197.49,308.8v45.85c.5,16.4-15.65,44.85-35,44.85H210V308.8Z" transform="translate(-162.49 -153.5)"/><path class="a" d="M168.88,399a33,33,0,0,0,13.56-8.89c9.19-9.48,15.88-24.73,15.55-35.46V309.3h12v-1H197v46.37c.32,10.5-6.24,25.43-15.27,34.74C175.64,395.68,169,399,162.49,399v1H210v-1Z" transform="translate(-162.49 -153.5)"/><polygon class="b" points="1.51 164 47.51 164 47.51 75.78 1.51 164"/><polygon class="b" points="1.51 129 47.51 129 47.51 43.75 1.51 129"/><polygon class="b" points="47.1 0 0.69 94 47.51 94 47.51 0.82 47.1 0"/><path class="c" d="M222.51,308.8v45.85c-.5,16.4,15.65,44.85,35,44.85H210V308.8Z" transform="translate(-162.49 -153.5)"/><path class="c" d="M251.12,399a33,33,0,0,1-13.56-8.89c-9.19-9.48-15.88-24.73-15.55-35.46V309.3H210v-1h13v46.37c-.32,10.5,6.24,25.43,15.27,34.74,6.08,6.27,12.73,9.59,19.23,9.59v1H210v-1Z" transform="translate(-162.49 -153.5)"/><polygon class="d" points="93.51 164 47.51 164 47.51 75.78 93.51 164"/><polygon class="d" points="93.51 129 47.51 129 47.51 43.75 93.51 129"/><polygon class="d" points="47.91 0 94.32 94 47.51 94 47.51 0.82 47.91 0"/></svg>